<?xml version="1.0" encoding="UTF-8"?>
<svg version="1.1" xmlns="http://www.w3.org/2000/svg" width="247" height="26">
<path d="M0 0 C81.51 0 163.02 0 247 0 C247 8.58 247 17.16 247 26 C165.49 26 83.98 26 0 26 C0 17.42 0 8.84 0 0 Z " fill="#171C27" transform="translate(0,0)"/>
<path d="M0 0 C1.32 0 2.64 0 4 0 C4 0.66 4 1.32 4 2 C3.34 2 2.68 2 2 2 C1.77837671 3.62324086 1.57310197 5.248721 1.375 6.875 C1.25898438 7.77992187 1.14296875 8.68484375 1.0234375 9.6171875 C1.01570313 10.40351563 1.00796875 11.18984375 1 12 C1.66 12.66 2.32 13.32 3 14 C3.125 16.625 3.125 16.625 3 19 C1.02 19.99 1.02 19.99 -1 21 C-1 21.66 -1 22.32 -1 23 C-1.66 23 -2.32 23 -3 23 C-3 22.34 -3 21.68 -3 21 C-5.1464753 21.11344376 -7.29220592 21.24106345 -9.4375 21.375 C-10.63246094 21.44460937 -11.82742187 21.51421875 -13.05859375 21.5859375 C-14.02925781 21.72257812 -14.99992188 21.85921875 -16 22 C-16.33 22.66 -16.66 23.32 -17 24 C-17.66 24 -18.32 24 -19 24 C-19 23.01 -19 22.02 -19 21 C-19.66 21 -20.32 21 -21 21 C-21 20.34 -21 19.68 -21 19 C-10.605 18.505 -10.605 18.505 0 18 C0.33 17.01 0.66 16.02 1 15 C0.34 15 -0.32 15 -1 15 C-1 15.99 -1 16.98 -1 18 C-3.77236494 17.91308261 -6.54147078 17.80622639 -9.3125 17.6875 C-10.09818359 17.66494141 -10.88386719 17.64238281 -11.69335938 17.61914062 C-12.45068359 17.58369141 -13.20800781 17.54824219 -13.98828125 17.51171875 C-14.68477783 17.48553467 -15.38127441 17.45935059 -16.09887695 17.43237305 C-18.54720044 16.87555002 -19.47348327 15.9650124 -21 14 C-21.328125 11.3359375 -21.328125 11.3359375 -21.25 8.375 C-21.23453125 7.39273437 -21.2190625 6.41046875 -21.203125 5.3984375 C-21 3 -21 3 -20 2 C-18.5112814 1.91330568 -17.018555 1.89296506 -15.52734375 1.90234375 C-14.62822266 1.90556641 -13.72910156 1.90878906 -12.80273438 1.91210938 C-11.85720703 1.92048828 -10.91167969 1.92886719 -9.9375 1.9375 C-8.98810547 1.94201172 -8.03871094 1.94652344 -7.06054688 1.95117188 C-4.70696935 1.9629989 -2.35351523 1.97947975 0 2 C0 1.34 0 0.68 0 0 Z " fill="#2A70AE" transform="translate(237,1)"/>
<path d="M0 0 C2.9375 2.0625 2.9375 2.0625 5 5 C5.50951861 9.14893725 5.54666957 12.56199608 3 16 C-0.21955988 18.29968563 -3.12559532 18.55348638 -7 18 C-9.85801731 16.01181405 -11.61901083 14.52395669 -12.484375 11.0625 C-12.7545711 7.09962386 -12.23136937 5.33653726 -9.9375 2 C-6.22192774 -0.52975133 -4.4117517 -0.7878128 0 0 Z " fill="#238FCA" transform="translate(168,3)"/>
<path d="M0 0 C8.96103896 -0.47792208 8.96103896 -0.47792208 13.125 1.4375 C15.52294929 4.71469736 15.59256817 6.89195872 15.36328125 10.875 C14.89100889 13.63753941 14.09677087 15.13620367 12 17 C9 18 9 18 0 18 C0 12.06 0 6.12 0 0 Z " fill="#14ACD9" transform="translate(55,3)"/>
<path d="M0 0 C2.875 1.4375 2.875 1.4375 5 4 C5.72788859 7.14635714 5.69514931 9.84940395 5 13 C2.56579582 16.50811779 1.20657416 17.77376734 -3 18.5625 C-6.92509607 17.82654449 -8.46508106 17.13137045 -11 14 C-11.71399561 10.53366647 -11.71399561 7.46633353 -11 4 C-7.81276081 0.06282218 -4.96287606 -0.82714601 0 0 Z " fill="#11AED8" transform="translate(46,3)"/>
<path d="M0 0 C1.65 0 3.3 0 5 0 C5 8.58 5 17.16 5 26 C1.04 26 -2.92 26 -7 26 C-6 22 -6 22 -3 20 C-2.6328549 17.20969724 -2.62517865 15.60387884 -4.125 13.1875 C-5.56798133 9.58004667 -4.09396728 6.6465576 -3 3 C-2.34 3 -1.68 3 -1 3 C-0.67 2.01 -0.34 1.02 0 0 Z " fill="#171923" transform="translate(242,0)"/>
<path d="M0 0 C9.625 -0.25 9.625 -0.25 13 2 C13.37985492 4.88689739 13.38328523 6.42507216 11.75 8.875 C10.74601574 10.96133819 10.74601574 10.96133819 11.7578125 12.8046875 C12.77441871 14.57486195 13.88288646 16.29147341 15 18 C12.6875 18.3125 12.6875 18.3125 10 18 C8.18116991 15.6167054 7 14.04181663 7 11 C6.01 11 5.02 11 4 11 C4 13.31 4 15.62 4 18 C2.68 18 1.36 18 0 18 C0 12.06 0 6.12 0 0 Z " fill="#0FB2D9" transform="translate(19,3)"/>
<path d="M0 0 C9 0 9 0 11.5625 1.5 C12.036875 1.995 12.51125 2.49 13 3 C12.47731534 5.76276177 11.89130413 8.3260876 11 11 C11.95093297 12.69514137 12.95107762 14.36368108 14 16 C14 16.66 14 17.32 14 18 C11.6875 17.8125 11.6875 17.8125 9 17 C7.3125 14.5 7.3125 14.5 6 12 C5.34 11.67 4.68 11.34 4 11 C4 13.31 4 15.62 4 18 C2.68 18 1.36 18 0 18 C0 12.06 0 6.12 0 0 Z " fill="#268BC9" transform="translate(176,3)"/>
<path d="M0 0 C9 0 9 0 11.5625 1.5 C12.036875 1.995 12.51125 2.49 13 3 C12.6875 6.375 12.6875 6.375 12 10 C8.77208445 12.1519437 7.71599191 12.20086443 4 12 C4 13.98 4 15.96 4 18 C2.68 18 1.36 18 0 18 C0 12.06 0 6.12 0 0 Z " fill="#0CBADF" transform="translate(4,3)"/>
<path d="M0 0 C1.32 0 2.64 0 4 0 C4.33 4.95 4.66 9.9 5 15 C6.65 14.34 8.3 13.68 10 13 C10.33 8.71 10.66 4.42 11 0 C12.32 0 13.64 0 15 0 C15.77674073 11.78919827 15.77674073 11.78919827 12.875 16.3125 C9.52283633 18.28007433 7.81974849 18.66430408 4 18 C1.96332385 16.45493534 1.13926922 15.27853844 0 13 C-0.07092842 10.7927077 -0.08415025 8.58332548 -0.0625 6.375 C-0.05347656 5.18648437 -0.04445313 3.99796875 -0.03515625 2.7734375 C-0.02355469 1.85820313 -0.01195313 0.94296875 0 0 Z " fill="#17A3D1" transform="translate(73,3)"/>
<path d="M0 0 C0 0.99 0 1.98 0 3 C-1.98 3.33 -3.96 3.66 -6 4 C-6 4.66 -6 5.32 -6 6 C-5.030625 6.474375 -4.06125 6.94875 -3.0625 7.4375 C0 9 0 9 1 10 C0.6875 13.5 0.6875 13.5 0 17 C-3.21451269 18.60725635 -6.43612536 18.05748185 -10 18 C-10.33 16.35 -10.66 14.7 -11 13 C-8.69 13.33 -6.38 13.66 -4 14 C-4 13.34 -4 12.68 -4 12 C-4.969375 11.401875 -5.93875 10.80375 -6.9375 10.1875 C-10 8 -10 8 -10.875 5.25 C-10.91625 4.5075 -10.9575 3.765 -11 3 C-7.48550811 -0.37391222 -4.73940561 -0.27342725 0 0 Z " fill="#1F97CE" transform="translate(139,3)"/>
<path d="M0 0 C3.3 0 6.6 0 10 0 C10 0.99 10 1.98 10 3 C7.69 3 5.38 3 3 3 C3 4.32 3 5.64 3 7 C4.98 7 6.96 7 9 7 C9 7.99 9 8.98 9 10 C7.02 10 5.04 10 3 10 C3 11.65 3 13.3 3 15 C5.31 15 7.62 15 10 15 C10 15.99 10 16.98 10 18 C6.7 18 3.4 18 0 18 C0 12.06 0 6.12 0 0 Z " fill="#298DD0" transform="translate(193,3)"/>
<path d="M0 0 C5.28 0 10.56 0 16 0 C16 1.98 16 3.96 16 6 C15 7 15 7 11.62109375 7.09765625 C10.22652923 7.09098369 8.83198257 7.07902532 7.4375 7.0625 C6.72658203 7.05798828 6.01566406 7.05347656 5.28320312 7.04882812 C3.52209987 7.03700864 1.76103964 7.01907263 0 7 C0 4.69 0 2.38 0 0 Z " fill="#1C334C" transform="translate(218,5)"/>
<path d="M0 0 C-0.33 1.32 -0.66 2.64 -1 4 C-3.31 4.33 -5.62 4.66 -8 5 C-8.020625 6.299375 -8.04125 7.59875 -8.0625 8.9375 C-8.07410156 9.66839844 -8.08570312 10.39929688 -8.09765625 11.15234375 C-8.20561184 13.01732141 -8.20561184 13.01732141 -7 14 C-4.67182036 14.36760731 -2.3381615 14.70241581 0 15 C-0.33 15.99 -0.66 16.98 -1 18 C-4.88817732 18.30495508 -7.4026107 18.29233945 -10.9375 16.5625 C-13.54841982 13.31862992 -13.73265706 11.2793468 -13.4765625 7.1953125 C-11.84600357 -0.31595078 -6.3951128 -0.54195871 0 0 Z " fill="#19A1D2" transform="translate(104,3)"/>
<path d="M0 0 C4.62 0 9.24 0 14 0 C14 0.99 14 1.98 14 3 C12.35 3 10.7 3 9 3 C9 7.95 9 12.9 9 18 C7.68 18 6.36 18 5 18 C5 13.05 5 8.1 5 3 C3.35 3 1.7 3 0 3 C0 2.01 0 1.02 0 0 Z " fill="#1B9DD1" transform="translate(106,3)"/>
<path d="M0 0 C4.29 0 8.58 0 13 0 C13 0.99 13 1.98 13 3 C11.35 3 9.7 3 8 3 C8 7.95 8 12.9 8 18 C6.68 18 5.36 18 4 18 C4 13.05 4 8.1 4 3 C2.68 3 1.36 3 0 3 C0 2.01 0 1.02 0 0 Z " fill="#2195CE" transform="translate(142,3)"/>
<path d="M0 0 C2.5 -0.375 2.5 -0.375 5 0 C7.31332486 3.46998729 7.33957563 4.92509248 7 9 C6.01 10.485 6.01 10.485 5 12 C2.5 12.375 2.5 12.375 0 12 C-2.31332486 8.53001271 -2.33957563 7.07490752 -2 3 C-1.34 2.01 -0.68 1.02 0 0 Z " fill="#17212F" transform="translate(162,6)"/>
<path d="M0 0 C4.55555556 0.55555556 4.55555556 0.55555556 6 2 C6.27314815 7.73611111 6.27314815 7.73611111 6 10 C5.34 10.66 4.68 11.32 4 12 C-0.55555556 11.44444444 -0.55555556 11.44444444 -2 10 C-2.27314815 4.26388889 -2.27314815 4.26388889 -2 2 C-1.34 1.34 -0.68 0.68 0 0 Z " fill="#161D28" transform="translate(41,6)"/>
<path d="M0 0 C5.875 0.875 5.875 0.875 7 2 C7.46511628 8.27906977 7.46511628 8.27906977 5.75 10.9375 C4 12 4 12 0 12 C0 8.04 0 4.08 0 0 Z " fill="#161E2A" transform="translate(59,6)"/>
<path d="M0 0 C6.27 0 12.54 0 19 0 C19 0.33 19 0.66 19 1 C13.39 1 7.78 1 2 1 C2 3.31 2 5.62 2 8 C6.95 8 11.9 8 17 8 C17 8.33 17 8.66 17 9 C12.38 9.33 7.76 9.66 3 10 C4.98 10.66 6.96 11.32 9 12 C9 12.33 9 12.66 9 13 C5.625 13.125 5.625 13.125 2 13 C0 11 0 11 -0.1953125 8.3984375 C-0.13020833 5.59895833 -0.06510417 2.79947917 0 0 Z " fill="#2C83C8" transform="translate(216,4)"/>
<path d="M0 0 C7.26 0 14.52 0 22 0 C22 0.66 22 1.32 22 2 C21.34 2 20.68 2 20 2 C20 2.66 20 3.32 20 4 C19.34 4 18.68 4 18 4 C18 3.34 18 2.68 18 2 C15.8535247 2.11344376 13.70779408 2.24106345 11.5625 2.375 C9.77005859 2.47941406 9.77005859 2.47941406 7.94140625 2.5859375 C6.97074219 2.72257812 6.00007812 2.85921875 5 3 C4.67 3.66 4.34 4.32 4 5 C3.34 5 2.68 5 2 5 C2 4.01 2 3.02 2 2 C1.34 2 0.68 2 0 2 C0 1.34 0 0.68 0 0 Z " fill="#2971AD" transform="translate(216,20)"/>
<path d="M0 0 C2.475 0.495 2.475 0.495 5 1 C4.67 2.65 4.34 4.3 4 6 C2.68 6 1.36 6 0 6 C0 4.02 0 2.04 0 0 Z " fill="#152D3B" transform="translate(8,6)"/>
<path d="M0 0 C0 0.66 0 1.32 0 2 C-0.66 2 -1.32 2 -2 2 C-2 2.66 -2 3.32 -2 4 C-2.66 4 -3.32 4 -4 4 C-4 3.34 -4 2.68 -4 2 C-8.62 2 -13.24 2 -18 2 C-18 1.67 -18 1.34 -18 1 C-15.56257869 0.83210874 -13.12507454 0.66563867 -10.6875 0.5 C-9.99720703 0.45230469 -9.30691406 0.40460937 -8.59570312 0.35546875 C-5.72337641 0.16120511 -2.87986212 0 0 0 Z " fill="#2E84CC" transform="translate(238,20)"/>
<path d="M0 0 C2.475 0.495 2.475 0.495 5 1 C4.67 2.32 4.34 3.64 4 5 C2.68 5 1.36 5 0 5 C0 3.35 0 1.7 0 0 Z " fill="#152E3B" transform="translate(23,6)"/>
<path d="M0 0 C2.64 0 5.28 0 8 0 C8 0.99 8 1.98 8 3 C5.125 3.1875 5.125 3.1875 2 3 C1.34 2.01 0.68 1.02 0 0 Z " fill="#1C354E" transform="translate(218,13)"/>
<path d="M0 0 C0.99 0 1.98 0 3 0 C3 1.98 3 3.96 3 6 C2.01 6.33 1.02 6.66 0 7 C0 4.69 0 2.38 0 0 Z " fill="#21466A" transform="translate(231,5)"/>
<path d="M0 0 C1.32 0 2.64 0 4 0 C3.67 1.65 3.34 3.3 3 5 C2.01 5 1.02 5 0 5 C0 3.35 0 1.7 0 0 Z " fill="#181F2C" transform="translate(180,6)"/>
</svg>
